<?xml version="1.0" encoding="UTF-8"?>
<!DOCTYPE svg PUBLIC "-//W3C//DTD SVG 1.1//EN" "http://www.w3.org/Graphics/SVG/1.1/DTD/svg11.dtd">
<!-- Creator: CorelDRAW X6 -->
<svg xmlns="http://www.w3.org/2000/svg" xml:space="preserve" width="11.811in" height="8.26778in" version="1.1" style="shape-rendering:geometricPrecision; text-rendering:geometricPrecision; image-rendering:optimizeQuality; fill-rule:evenodd; clip-rule:evenodd"
viewBox="0 0 11811 8268"
 xmlns:xlink="http://www.w3.org/1999/xlink">
 <defs>
  <style type="text/css">
   <![CDATA[
    .fil0 {fill:#B99A7F;fill-rule:nonzero}
   ]]>
  </style>
 </defs>
 <g id="__x0023_Layer_x0020_1">
  <metadata id="CorelCorpID_0Corel-Layer"/>
  <g id="_401220536">
   <g>
    <path class="fil0" d="M2559 2656l-1 34 -44 0c-120,0 -218,96 -221,216l0 2161c0,386 -276,689 -627,689l0 -31c226,-79 403,-372 403,-668l0 -2150c-2,-120 -100,-217 -221,-217l-44 0 -1 -34 754 0z"/>
    <path class="fil0" d="M8064 2655l0 35 -30 0c-105,0 -232,62 -302,213l-828 1857c0,0 -128,279 -128,355l-31 0 -968 -2209c-70,-153 -197,-216 -304,-216l-28 0 0 -35 776 0 0 34 -30 0c-89,0 -180,77 -130,215l722 1805 749 -1805c50,-138 -42,-215 -131,-215l-30 0 0 -34 693 0z"/>
    <path class="fil0" d="M9826 4816c70,153 197,217 302,217l29 0 0 35 -776 0 0 -34 30 0c89,0 181,-78 131,-216l-220 -587 -928 0 -231 589c-49,137 43,214 132,214l30 0 0 34 -693 0 0 -35 31 0c105,0 232,-64 302,-217l781 -1854c0,0 127,-279 127,-355l31 0 921 2208zm-542 -689l0 0 -415 -1106 -433 1106 849 0z"/>
    <path class="fil0" d="M5513 3924c5,-16 12,-44 15,-61l10 -66c3,-17 -3,-42 -13,-56l-41 -58c-10,-14 -11,-36 -3,-49 9,-13 5,-32 -8,-43l-11 -9c-13,-11 -12,-28 2,-37l71 -46c14,-9 13,-22 -3,-29l-82 -33c-16,-6 -28,-24 -27,-40 1,-15 -10,-32 -24,-36 -14,-4 -34,-20 -44,-34l-12 -19c-10,-14 -18,-40 -19,-57l-4 -53c-1,-17 -11,-42 -23,-55l-24 -26c-11,-13 -20,-37 -19,-55 0,0 1,-17 -4,-17 -5,0 -46,-17 -46,-17 -16,-7 -37,-24 -47,-38l-8 -11c-10,-14 -29,-26 -41,-27 -13,0 -33,-11 -46,-23l-10 -10c-12,-12 -25,-36 -29,-53l-1 -6c-4,-17 -21,-32 -38,-34l-26 -3c-17,-2 -37,-16 -44,-32 -7,-15 -25,-28 -39,-27 -14,0 -30,-8 -34,-19 -5,-11 -22,-23 -39,-27l-2 0c-17,-4 -38,-12 -48,-17 -10,-5 -18,-23 -18,-41l0 -40c0,-17 -12,-24 -27,-15l-26 16c-15,9 -41,14 -58,12l-108 -17c-17,-3 -39,-16 -49,-31l-36 -52c-10,-14 -30,-19 -45,-11l-77 42c-15,8 -41,9 -56,2l-25 -11c-16,-7 -34,-3 -42,8 -7,11 -22,10 -34,-3l-8 -9c-12,-13 -32,-16 -46,-8 -14,8 -33,4 -44,-10l-5 -7c-10,-14 -22,-11 -26,5l-8 33c-4,17 -20,25 -36,19 -16,-6 -34,-2 -40,9 -6,11 -26,19 -43,18l-11 -1c-17,-2 -42,-12 -55,-23l-53 -44c-13,-11 -22,-6 -19,11l2 13c3,17 -3,42 -13,56l-18 25c-10,14 -32,27 -49,29l-12 2c-17,2 -37,13 -43,24 -7,11 -25,16 -42,10l-31 -11c-16,-6 -34,3 -39,19l-6 17c-5,16 -22,23 -37,15l-171 -90c-15,-8 -23,-1 -17,15l54 154c6,16 0,39 -13,51l-38 34c-13,11 -25,34 -28,51 -3,16 -17,31 -31,33 -15,2 -35,15 -45,29l-29 39c-10,14 -24,38 -30,54l-7 18c-6,16 -25,32 -42,37l-4 1c-17,4 -33,21 -35,38l-8 59c-2,17 -15,40 -28,51l-41 34c-13,11 -21,34 -18,51l12 60c3,17 -3,41 -14,55l-43 52c-11,13 -20,38 -20,56l0 230c0,17 8,43 17,58l2 3c9,15 10,39 1,54l-29 50c-9,15 -10,40 -3,56l27 58c7,16 1,36 -14,44l-22 13c-15,9 -14,21 2,28l87 36c16,7 29,26 28,43l-3 118c0,17 7,43 17,57l188 265c10,14 21,39 25,56l29 127c4,17 20,26 36,19l54 -21c16,-6 40,-2 53,9l56 50c13,11 37,16 53,9l9 -3c16,-6 31,2 33,19l13 112c2,17 16,25 32,18l61 -28c16,-7 42,-8 58,-2l29 11c16,6 25,24 19,41l-8 23c-6,16 2,22 16,13l56 -35c15,-9 34,-6 42,6 9,12 28,16 43,8l35 -18c15,-8 40,-7 55,2l94 58c15,9 38,8 53,-1l29 -19c14,-9 30,-9 35,2 5,11 19,10 32,-2l19 -19c12,-12 32,-12 44,1l32 33c12,12 32,13 45,1l12 -11c13,-12 37,-22 54,-24l76 -5c17,-1 42,7 56,18l56 45c13,11 24,6 24,-12l0 -74c0,-17 14,-31 31,-31l46 0c17,0 42,-9 56,-20l43 -34c14,-11 39,-20 56,-21l35 -2c17,-1 33,-9 35,-19 2,-10 15,-9 28,2l7 6c13,11 21,7 18,-10l-3 -14c-3,-17 5,-40 18,-52l79 -71c13,-11 37,-21 55,-22l68 -2c17,-1 24,-13 15,-28l-14 -23c-9,-15 -6,-37 6,-49l54 -54c12,-12 27,-36 32,-52l13 -39c5,-16 23,-25 40,-20l28 9c16,6 25,-3 19,-19l-16 -42c-6,-16 -4,-42 5,-57l84 -148c8,-15 12,-41 8,-58l-11 -48c-4,-17 -4,-44 1,-61l10 -39c4,-17 22,-30 39,-29l4 0c17,1 23,-10 13,-24l-32 -45c-10,-14 -14,-39 -8,-55l21 -64zm-1320 1162l0 0c-663,0 -1201,-538 -1201,-1201 0,-663 538,-1201 1201,-1201 663,0 1201,538 1201,1201 0,663 -538,1201 -1201,1201z"/>
   </g>
   <g>
    <path class="fil0" d="M2791 5388c62,0 100,38 100,100 0,79 -80,120 -140,86l0 -5c0,0 79,18 101,-56 2,-7 3,-20 3,-31 -1,-47 -24,-79 -65,-79l-56 0 0 308c0,18 14,33 31,33l6 0 0 5 -106 0 0 -5 6 0c17,0 31,-14 31,-33l0 -288c-2,-17 -15,-30 -31,-30l-6 0 0 -5 126 0z"/>
    <path class="fil0" d="M3336 5749l-106 0 0 -5 6 0c17,0 31,-14 31,-33l0 -286c0,-18 -14,-32 -31,-32l-6 0 0 -5 106 0 0 5 -6 0c-17,0 -30,14 -31,32l0 286c0,18 14,33 31,33l6 0 0 5z"/>
    <path class="fil0" d="M3911 5665l-28 83 -200 0 0 -5 6 0c17,0 31,-14 31,-33l0 -286c0,-18 -14,-32 -31,-32l-6 0 0 -5 106 0 0 5 -6 0c-17,0 -31,14 -31,32l0 308 69 0c51,0 71,-28 86,-67l5 0z"/>
    <path class="fil0" d="M4517 5711c10,23 28,33 42,33l4 0 0 5 -109 0 0 -5 4 0c12,0 25,-12 18,-33l-31 -88 -130 0 -32 88c-7,20 6,32 18,32l4 0 0 5 -97 0 0 -5 4 0c15,0 33,-10 42,-33l109 -277c0,0 18,-42 18,-53l4 0 129 331zm-76 -103l0 0 -58 -165 -61 165 119 0z"/>
    <path class="fil0" d="M5044 5387c21,0 49,-5 58,-9l0 65 -5 0 0 -9c0,-17 -12,-30 -28,-31l-91 0 0 309c1,18 14,32 31,32l6 0 0 5 -106 0 0 -5 6 0c17,0 30,-14 31,-32l0 -309 -92 0c-15,1 -28,14 -28,31l0 9 -5 0 0 -65c9,4 37,9 58,9l163 0z"/>
    <path class="fil0" d="M5630 5749l-200 0 0 -5 6 0c17,0 31,-14 31,-33l0 -289c-2,-17 -15,-29 -31,-29l-6 0 0 -5 141 0c21,0 49,-5 58,-9l0 15 0 9 0 41 -5 0 0 -9c0,-16 -12,-30 -27,-31l-98 0 0 159 82 0c13,0 23,-12 23,-25l0 -8 5 0 0 82 -5 0 0 -8c0,-14 -10,-25 -23,-25l-82 0 0 154 69 0c51,0 71,-28 86,-67l5 0 -28 83z"/>
    <path class="fil0" d="M6146 5597c19,19 24,42 24,63 0,57 -35,96 -90,96 -24,0 -63,-7 -82,-28 -4,-16 -2,-49 6,-72l4 0c-5,53 27,87 70,85 35,-2 65,-28 65,-69 0,-20 -7,-36 -19,-48l-92 -92c-19,-19 -26,-44 -26,-64 0,-44 30,-87 85,-87 13,0 29,2 41,5l19 0 0 6 0 57 -5 0c0,-33 -24,-53 -54,-53 -36,0 -59,28 -59,59 0,13 4,33 19,48l95 94z"/>
    <path class="fil0" d="M7074 5597c19,19 24,42 24,63 0,57 -35,96 -90,96 -24,0 -63,-7 -82,-28 -4,-16 -2,-49 6,-72l4 0c-5,53 27,87 70,85 35,-2 65,-28 65,-69 0,-20 -7,-36 -19,-48l-92 -92c-19,-19 -26,-44 -26,-64 0,-44 30,-87 85,-87 13,0 29,2 41,5l19 0 0 6 0 57 -5 0c0,-33 -24,-53 -54,-53 -36,0 -59,28 -59,59 0,13 4,33 19,48l95 94z"/>
    <path class="fil0" d="M7646 5387c21,0 49,-5 58,-9l0 65 -5 0 0 -9c0,-17 -12,-30 -28,-31l-91 0 0 309c1,18 14,32 31,32l6 0 0 5 -106 0 0 -5 6 0c17,0 30,-14 31,-32l0 -309 -92 0c-15,1 -28,14 -28,31l0 9 -5 0 0 -65c9,4 37,9 58,9l163 0z"/>
    <path class="fil0" d="M8358 5388l0 5 -8 0c-13,0 -25,10 -25,24l0 204c0,81 -52,135 -130,135 -80,0 -134,-54 -134,-134l0 -204c0,-15 -12,-26 -26,-26l-8 0 0 -5 98 0 0 5 -8 0c-14,0 -25,10 -25,25l0 197c0,75 41,125 103,125 64,0 107,-47 108,-118l0 -203c-1,-15 -12,-25 -26,-25l-8 0 0 -5 89 0z"/>
    <path class="fil0" d="M8857 5388c103,0 173,72 173,181 0,108 -70,180 -173,180l-163 0 0 -5 6 0c17,0 31,-15 31,-33l0 -289c0,-17 -15,-29 -31,-29l-6 0 0 -5 163 0zm-95 345l0 0 95 0c83,0 137,-66 137,-165 0,-99 -55,-165 -137,-165l-95 0 0 330z"/>
    <path class="fil0" d="M9468 5749l-106 0 0 -5 6 0c17,0 31,-14 31,-33l0 -286c0,-18 -14,-32 -31,-32l-6 0 0 -5 106 0 0 5 -6 0c-17,0 -30,14 -31,32l0 286c0,18 14,33 31,33l6 0 0 5z"/>
    <path class="fil0" d="M10157 5568c0,113 -71,188 -173,188 -103,0 -173,-75 -173,-188 0,-113 71,-188 173,-188 103,0 173,75 173,188zm-37 0l0 0c0,-103 -55,-172 -137,-172 -82,0 -137,69 -137,172 0,103 55,172 137,172 82,0 137,-69 137,-172z"/>
   </g>
  </g>
 </g>
</svg>
