<?xml version="1.0" encoding="utf-8"?>
<!-- Generator: Adobe Illustrator 23.0.0, SVG Export Plug-In . SVG Version: 6.00 Build 0)  -->
<svg version="1.1" id="Layer_1" xmlns="http://www.w3.org/2000/svg" xmlns:xlink="http://www.w3.org/1999/xlink" x="0px" y="0px"
	 viewBox="0 0 233.6 223.6" style="enable-background:new 0 0 233.6 223.6;" xml:space="preserve">
<style type="text/css">
	.st0{fill:#B99A7F;}
</style>
<g id="__x0023_Layer_x0020_1">
	<g id="_401220536">
		<g>
			<path class="st0" d="M213.9,115.5c0.4-1.2,0.9-3.2,1.1-4.4l0.7-4.8c0.2-1.2-0.2-3-0.9-4l-3-4.2c-0.7-1-0.8-2.6-0.2-3.5
				c0.6-0.9,0.4-2.3-0.6-3.1l-0.8-0.6c-0.9-0.8-0.9-2,0.1-2.7l5.1-3.3c1-0.6,0.9-1.6-0.2-2.1l-5.9-2.4c-1.2-0.4-2-1.7-1.9-2.9
				c0.1-1.1-0.7-2.3-1.7-2.6c-1-0.3-2.4-1.4-3.2-2.4l-0.9-1.4c-0.7-1-1.3-2.9-1.4-4.1l-0.3-3.8c-0.1-1.2-0.8-3-1.7-4l-1.7-1.9
				c-0.8-0.9-1.4-2.7-1.4-4c0,0,0.1-1.2-0.3-1.2c-0.4,0-3.3-1.2-3.3-1.2c-1.2-0.5-2.7-1.7-3.4-2.7l-0.6-0.8c-0.7-1-2.1-1.9-3-1.9
				c-0.9,0-2.4-0.8-3.3-1.7l-0.7-0.7c-0.9-0.9-1.8-2.6-2.1-3.8l-0.1-0.4c-0.3-1.2-1.5-2.3-2.7-2.4l-1.9-0.2
				c-1.2-0.1-2.7-1.2-3.2-2.3c-0.5-1.1-1.8-2-2.8-1.9c-1,0-2.2-0.6-2.4-1.4c-0.4-0.8-1.6-1.7-2.8-1.9h-0.1c-1.2-0.3-2.7-0.9-3.5-1.2
				c-0.7-0.4-1.3-1.7-1.3-3v-2.9c0-1.2-0.9-1.7-1.9-1.1l-1.9,1.2c-1.1,0.6-3,1-4.2,0.9l-7.8-1.2c-1.2-0.2-2.8-1.2-3.5-2.2l-2.6-3.7
				c-0.7-1-2.2-1.4-3.2-0.8l-5.5,3c-1.1,0.6-3,0.6-4,0.1l-1.8-0.8c-1.2-0.5-2.4-0.2-3,0.6c-0.5,0.8-1.6,0.7-2.4-0.2l-0.6-0.6
				c-0.9-0.9-2.3-1.2-3.3-0.6s-2.4,0.3-3.2-0.7l-0.4-0.5c-0.7-1-1.6-0.8-1.9,0.4l-0.6,2.4c-0.3,1.2-1.4,1.8-2.6,1.4
				s-2.4-0.1-2.9,0.6c-0.4,0.8-1.9,1.4-3.1,1.3l-0.8-0.1c-1.2-0.1-3-0.9-4-1.7L88.8,16c-0.9-0.8-1.6-0.4-1.4,0.8l0.1,0.9
				c0.2,1.2-0.2,3-0.9,4l-1.3,1.8c-0.7,1-2.3,1.9-3.5,2.1l-0.9,0.1c-1.2,0.1-2.7,0.9-3.1,1.7c-0.5,0.8-1.8,1.2-3,0.7l-2.2-0.8
				c-1.2-0.4-2.4,0.2-2.8,1.4l-0.4,1.2c-0.4,1.2-1.6,1.7-2.7,1.1l-12.3-6.5c-1.1-0.6-1.7-0.1-1.2,1.1L57,36.8c0.4,1.2,0,2.8-0.9,3.7
				l-2.7,2.4c-0.9,0.8-1.8,2.4-2,3.7c-0.2,1.2-1.2,2.2-2.2,2.4c-1.1,0.1-2.5,1.1-3.2,2.1l-2.1,2.8c-0.7,1-1.7,2.7-2.2,3.9l-0.5,1.3
				c-0.4,1.2-1.8,2.3-3,2.7l-0.3,0.1c-1.2,0.3-2.4,1.5-2.5,2.7l-0.6,4.2c-0.1,1.2-1.1,2.9-2,3.7l-3,2.4c-0.9,0.8-1.5,2.4-1.3,3.7
				l0.9,4.3c0.2,1.2-0.2,3-1,4l-3.1,3.7c-0.8,0.9-1.4,2.7-1.4,4v16.6c0,1.2,0.6,3.1,1.2,4.2l0.1,0.2c0.6,1.1,0.7,2.8,0.1,3.9
				l-2.1,3.6c-0.6,1.1-0.7,2.9-0.2,4l1.9,4.2c0.5,1.2,0.1,2.6-1,3.2l-1.6,0.9c-1.1,0.6-1,1.5,0.1,2l6.3,2.6c1.2,0.5,2.1,1.9,2,3.1
				l-0.2,8.5c0,1.2,0.5,3.1,1.2,4.1l13.5,19.1c0.7,1,1.5,2.8,1.8,4l2.1,9.1c0.3,1.2,1.4,1.9,2.6,1.4l3.9-1.5
				c1.2-0.4,2.9-0.1,3.8,0.6l4,3.6c0.9,0.8,2.7,1.2,3.8,0.6l0.6-0.2c1.2-0.4,2.2,0.1,2.4,1.4l0.9,8.1c0.1,1.2,1.2,1.8,2.3,1.3l4.4-2
				c1.2-0.5,3-0.6,4.2-0.1l2.1,0.8c1.2,0.4,1.8,1.7,1.4,3l-0.6,1.7c-0.4,1.2,0.1,1.6,1.2,0.9l4-2.5c1.1-0.6,2.4-0.4,3,0.4
				c0.6,0.9,2,1.2,3.1,0.6l2.5-1.3c1.1-0.6,2.9-0.5,4,0.1l6.8,4.2c1.1,0.6,2.7,0.6,3.8-0.1l2.1-1.4c1-0.6,2.2-0.6,2.5,0.1
				c0.4,0.8,1.4,0.7,2.3-0.1l1.4-1.4c0.9-0.9,2.3-0.9,3.2,0.1l2.3,2.4c0.9,0.9,2.3,0.9,3.2,0.1l0.9-0.8c0.9-0.9,2.7-1.6,3.9-1.7
				l5.5-0.4c1.2-0.1,3,0.5,4,1.3l4,3.2c0.9,0.8,1.7,0.4,1.7-0.9v-5.3c0-1.2,1-2.2,2.2-2.2h3.3c1.2,0,3-0.6,4-1.4l3.1-2.4
				c1-0.8,2.8-1.4,4-1.5l2.5-0.1c1.2-0.1,2.4-0.6,2.5-1.4c0.1-0.7,1.1-0.6,2,0.1l0.5,0.4c0.9,0.8,1.5,0.5,1.3-0.7l-0.2-1
				c-0.2-1.2,0.4-2.9,1.3-3.7l5.7-5.1c0.9-0.8,2.7-1.5,4-1.6l4.9-0.1c1.2-0.1,1.7-0.9,1.1-2l-1-1.7c-0.6-1.1-0.4-2.7,0.4-3.5
				l3.9-3.9c0.9-0.9,1.9-2.6,2.3-3.7l0.9-2.8c0.4-1.2,1.7-1.8,2.9-1.4l2,0.6c1.2,0.4,1.8-0.2,1.4-1.4l-1.2-3c-0.4-1.2-0.3-3,0.4-4.1
				l6-10.7c0.6-1.1,0.9-3,0.6-4.2l-0.8-3.5c-0.3-1.2-0.3-3.2,0.1-4.4l0.7-2.8c0.3-1.2,1.6-2.2,2.8-2.1h0.3c1.2,0.1,1.7-0.7,0.9-1.7
				l-2.3-3.2c-0.7-1-1-2.8-0.6-4l1.5-4.6L213.9,115.5z M118.8,199.2L118.8,199.2c-47.7,0-86.5-38.7-86.5-86.5s38.7-86.5,86.5-86.5
				s86.5,38.7,86.5,86.5S166.6,199.2,118.8,199.2z"/>
		</g>
	</g>
</g>
</svg>
